<svg id="Layer_1" data-name="Layer 1" xmlns="http://www.w3.org/2000/svg" viewBox="0 0 228.86 108.64"><defs><style>.cls-1{fill:#e6322d;}.cls-1,.cls-2{stroke:#231f20;stroke-miterlimit:10;stroke-width:4px;}.cls-2{fill:#e6e7e8;}</style></defs><path class="cls-1" d="M4.92,8a64.61,64.61,0,0,0,8,1.77,66.61,66.61,0,0,0,20.86-.09c-.78,7.51-1.38,15.42-1.74,23.72-.51,12-.45,23.27,0,33.75A10.48,10.48,0,0,0,44.32,77.1h1.46v27.53H38.27q-15.44,0-24.05-9t-8.62-25c.56-15.43.61-31.55,0-48.3Q5.33,15.1,4.92,8Z"/><path class="cls-2" d="M82.5,35.31v69.32h-26V35.31ZM69.57,4.37a12.72,12.72,0,0,1,9.14,3.72,11.82,11.82,0,0,1,3.86,8.79,11.74,11.74,0,0,1-3.65,8.9,13,13,0,0,1-9.35,3.48,13,13,0,0,1-9.36-3.48,11.74,11.74,0,0,1-3.65-8.9,11.82,11.82,0,0,1,3.86-8.79A12.75,12.75,0,0,1,69.57,4.37Z"/><path class="cls-1" d="M144.38,34.28v27.4q-5.49,0-7.54,2c-1.37,1.37-2.24,4.06-2.61,8.1q-1.8,20.08-15.57,28.37-7.3,4.3-20.72,4.31H94.32V77H95.5c4.18,0,7.15-.87,8.94-2.6s2.82-4.79,3.09-9.15q.56-10.63,2-14.95a21.75,21.75,0,0,1,5.81-8.55q7.65-7.44,21.21-7.44Z"/><path class="cls-2" d="M179.15,8.72V35.28h11.68q-.22,13.3-.44,26.6l-11.24.87a20.41,20.41,0,0,0,12.17,20V104.6c-1.35.05-2.34.07-3,.07a35.36,35.36,0,0,1-16.65-4.1,34.6,34.6,0,0,1-9.19-6.91,37,37,0,0,1-3.36-4.21c-5.11-7.78-3.24-19.62-2.82-22.1l.33-58.63Z"/><path class="cls-2" d="M211.23,80a12.83,12.83,0,0,1,9.23,3.72,11.89,11.89,0,0,1,3.86,8.85,11.52,11.52,0,0,1-3.83,8.73,13.08,13.08,0,0,1-9.26,3.59,12.81,12.81,0,0,1-9.27-3.49,11.75,11.75,0,0,1-3.65-8.88,11.87,11.87,0,0,1,3.78-8.88A12.69,12.69,0,0,1,211.23,80Z"/><rect class="cls-1" x="42.71" y="77.02" width="55.08" height="27.61"/><path class="cls-1" d="M190.83,62.75a128.75,128.75,0,0,1-19.52,2.78,128.34,128.34,0,0,1-35.07-2.61V34.28c8.41-.21,15.47-.57,20.72-.9,10.44-.64,15.79-1,22.19-2.14a116.47,116.47,0,0,0,19.16-5.14,119.89,119.89,0,0,1-3.21,22.71A118.92,118.92,0,0,1,190.83,62.75Z"/></svg>